<mxfile host="Electron" agent="Mozilla/5.0 (Windows NT 10.0; Win64; x64) AppleWebKit/537.36 (KHTML, like Gecko) draw.io/26.0.4 Chrome/128.0.6613.186 Electron/32.2.5 Safari/537.36" version="26.0.4">
  <diagram name="Page-1" id="0783ab3e-0a74-02c8-0abd-f7b4e66b4bec">
    <mxGraphModel dx="1195" dy="1903" grid="1" gridSize="10" guides="1" tooltips="1" connect="1" arrows="1" fold="1" page="1" pageScale="1" pageWidth="850" pageHeight="1100" background="none" math="0" shadow="0">
      <root>
        <mxCell id="0" />
        <mxCell id="1" parent="0" />
        <mxCell id="1c1d494c118603dd-1" value="Game Play" style="swimlane;html=1;childLayout=stackLayout;startSize=20;rounded=0;shadow=0;comic=0;labelBackgroundColor=none;strokeWidth=1;fontFamily=Verdana;fontSize=12;align=center;" parent="1" vertex="1">
          <mxGeometry x="60" y="-150" width="750" height="990" as="geometry" />
        </mxCell>
        <mxCell id="1c1d494c118603dd-2" value="" style="swimlane;html=1;startSize=20;" parent="1c1d494c118603dd-1" vertex="1">
          <mxGeometry y="20" width="750" height="970" as="geometry" />
        </mxCell>
        <mxCell id="60571a20871a0731-4" value="" style="ellipse;whiteSpace=wrap;html=1;rounded=0;shadow=0;comic=0;labelBackgroundColor=none;strokeWidth=1;fillColor=#000000;fontFamily=Verdana;fontSize=12;align=center;" parent="1c1d494c118603dd-2" vertex="1">
          <mxGeometry x="321" y="50" width="40" height="40" as="geometry" />
        </mxCell>
        <mxCell id="UkSORgVNk2TvawBsNUPi-9" value="&lt;div&gt;&lt;br&gt;&lt;/div&gt;" style="shape=mxgraph.bpmn.shape;html=1;verticalLabelPosition=bottom;labelBackgroundColor=#ffffff;verticalAlign=top;perimeter=ellipsePerimeter;outline=end;symbol=terminate;rounded=0;shadow=0;comic=0;strokeWidth=1;fontFamily=Verdana;fontSize=12;align=center;" vertex="1" parent="1c1d494c118603dd-2">
          <mxGeometry x="567" y="890" width="40" height="40" as="geometry" />
        </mxCell>
        <mxCell id="UkSORgVNk2TvawBsNUPi-37" value="O&#39;s turn?" style="rhombus;whiteSpace=wrap;html=1;" vertex="1" parent="1c1d494c118603dd-2">
          <mxGeometry x="300" y="198" width="80" height="80" as="geometry" />
        </mxCell>
        <mxCell id="UkSORgVNk2TvawBsNUPi-40" value="Change Cell to &#39;O&#39;" style="rounded=1;whiteSpace=wrap;html=1;" vertex="1" parent="1c1d494c118603dd-2">
          <mxGeometry x="130" y="310" width="120" height="60" as="geometry" />
        </mxCell>
        <mxCell id="UkSORgVNk2TvawBsNUPi-41" value="Change Cell to &#39;X&#39;" style="rounded=1;whiteSpace=wrap;html=1;" vertex="1" parent="1c1d494c118603dd-2">
          <mxGeometry x="430" y="310" width="120" height="60" as="geometry" />
        </mxCell>
        <mxCell id="UkSORgVNk2TvawBsNUPi-42" value="Toggle Players Turn" style="rounded=1;whiteSpace=wrap;html=1;" vertex="1" parent="1c1d494c118603dd-2">
          <mxGeometry x="275" y="848" width="120" height="60" as="geometry" />
        </mxCell>
        <mxCell id="UkSORgVNk2TvawBsNUPi-43" value="&amp;nbsp;Yes&amp;nbsp;" style="endArrow=classic;html=1;rounded=0;" edge="1" parent="1c1d494c118603dd-2" source="UkSORgVNk2TvawBsNUPi-37" target="UkSORgVNk2TvawBsNUPi-40">
          <mxGeometry width="50" height="50" relative="1" as="geometry">
            <mxPoint x="550" y="410" as="sourcePoint" />
            <mxPoint x="600" y="360" as="targetPoint" />
            <Array as="points">
              <mxPoint x="190" y="238" />
            </Array>
          </mxGeometry>
        </mxCell>
        <mxCell id="UkSORgVNk2TvawBsNUPi-44" value="&amp;nbsp;No&amp;nbsp;" style="endArrow=classic;html=1;rounded=0;" edge="1" parent="1c1d494c118603dd-2" source="UkSORgVNk2TvawBsNUPi-37" target="UkSORgVNk2TvawBsNUPi-41">
          <mxGeometry width="50" height="50" relative="1" as="geometry">
            <mxPoint x="550" y="410" as="sourcePoint" />
            <mxPoint x="600" y="360" as="targetPoint" />
            <Array as="points">
              <mxPoint x="490" y="238" />
            </Array>
          </mxGeometry>
        </mxCell>
        <mxCell id="UkSORgVNk2TvawBsNUPi-48" value="Change Cells to show small win" style="rounded=1;whiteSpace=wrap;html=1;" vertex="1" parent="1c1d494c118603dd-2">
          <mxGeometry x="440" y="420" width="120" height="60" as="geometry" />
        </mxCell>
        <mxCell id="UkSORgVNk2TvawBsNUPi-47" value="Big&lt;div&gt;Cell&lt;/div&gt;&lt;div&gt;Win?&lt;/div&gt;" style="rhombus;whiteSpace=wrap;html=1;" vertex="1" parent="1c1d494c118603dd-2">
          <mxGeometry x="301" y="531" width="80" height="80" as="geometry" />
        </mxCell>
        <mxCell id="UkSORgVNk2TvawBsNUPi-56" value="Scores" style="whiteSpace=wrap;html=1;aspect=fixed;" vertex="1" parent="1c1d494c118603dd-2">
          <mxGeometry x="704" y="659" width="40" height="40" as="geometry" />
        </mxCell>
        <mxCell id="UkSORgVNk2TvawBsNUPi-76" value="Click Detected" style="rounded=1;whiteSpace=wrap;html=1;" vertex="1" parent="1c1d494c118603dd-2">
          <mxGeometry x="281" y="110" width="120" height="60" as="geometry" />
        </mxCell>
        <mxCell id="UkSORgVNk2TvawBsNUPi-77" value="" style="endArrow=classic;html=1;rounded=0;" edge="1" parent="1c1d494c118603dd-2" source="60571a20871a0731-4" target="UkSORgVNk2TvawBsNUPi-76">
          <mxGeometry width="50" height="50" relative="1" as="geometry">
            <mxPoint x="450" y="180" as="sourcePoint" />
            <mxPoint x="500" y="130" as="targetPoint" />
          </mxGeometry>
        </mxCell>
        <mxCell id="UkSORgVNk2TvawBsNUPi-78" value="" style="endArrow=classic;html=1;rounded=0;" edge="1" parent="1c1d494c118603dd-2" source="UkSORgVNk2TvawBsNUPi-76" target="UkSORgVNk2TvawBsNUPi-37">
          <mxGeometry width="50" height="50" relative="1" as="geometry">
            <mxPoint x="390" y="290" as="sourcePoint" />
            <mxPoint x="440" y="240" as="targetPoint" />
          </mxGeometry>
        </mxCell>
        <mxCell id="UkSORgVNk2TvawBsNUPi-75" value="" style="endArrow=classic;html=1;rounded=0;" edge="1" parent="1c1d494c118603dd-2" source="UkSORgVNk2TvawBsNUPi-42" target="UkSORgVNk2TvawBsNUPi-76">
          <mxGeometry width="50" height="50" relative="1" as="geometry">
            <mxPoint x="80" y="670" as="sourcePoint" />
            <mxPoint x="100" y="210" as="targetPoint" />
            <Array as="points">
              <mxPoint x="70" y="880" />
              <mxPoint x="70" y="140" />
            </Array>
          </mxGeometry>
        </mxCell>
        <mxCell id="UkSORgVNk2TvawBsNUPi-46" value="Small&lt;div&gt;Cell&lt;/div&gt;&lt;div&gt;Win ?&lt;/div&gt;" style="rhombus;whiteSpace=wrap;html=1;" vertex="1" parent="1">
          <mxGeometry x="362" y="281" width="80" height="80" as="geometry" />
        </mxCell>
        <mxCell id="UkSORgVNk2TvawBsNUPi-49" value="" style="endArrow=classic;html=1;rounded=0;" edge="1" parent="1" source="UkSORgVNk2TvawBsNUPi-40" target="UkSORgVNk2TvawBsNUPi-46">
          <mxGeometry width="50" height="50" relative="1" as="geometry">
            <mxPoint x="610" y="280" as="sourcePoint" />
            <mxPoint x="660" y="230" as="targetPoint" />
            <Array as="points">
              <mxPoint x="250" y="320" />
            </Array>
          </mxGeometry>
        </mxCell>
        <mxCell id="UkSORgVNk2TvawBsNUPi-50" value="" style="endArrow=classic;html=1;rounded=0;" edge="1" parent="1" source="UkSORgVNk2TvawBsNUPi-41" target="UkSORgVNk2TvawBsNUPi-46">
          <mxGeometry width="50" height="50" relative="1" as="geometry">
            <mxPoint x="610" y="280" as="sourcePoint" />
            <mxPoint x="660" y="230" as="targetPoint" />
            <Array as="points">
              <mxPoint x="400" y="210" />
            </Array>
          </mxGeometry>
        </mxCell>
        <mxCell id="UkSORgVNk2TvawBsNUPi-51" value="&amp;nbsp;Yes&amp;nbsp;" style="endArrow=classic;html=1;rounded=0;" edge="1" parent="1" source="UkSORgVNk2TvawBsNUPi-46" target="UkSORgVNk2TvawBsNUPi-48">
          <mxGeometry width="50" height="50" relative="1" as="geometry">
            <mxPoint x="610" y="280" as="sourcePoint" />
            <mxPoint x="660" y="230" as="targetPoint" />
          </mxGeometry>
        </mxCell>
        <mxCell id="UkSORgVNk2TvawBsNUPi-52" value="" style="endArrow=classic;html=1;rounded=0;" edge="1" parent="1" source="UkSORgVNk2TvawBsNUPi-46" target="UkSORgVNk2TvawBsNUPi-47">
          <mxGeometry width="50" height="50" relative="1" as="geometry">
            <mxPoint x="610" y="280" as="sourcePoint" />
            <mxPoint x="660" y="230" as="targetPoint" />
          </mxGeometry>
        </mxCell>
        <mxCell id="UkSORgVNk2TvawBsNUPi-61" value="&amp;nbsp;No&amp;nbsp;" style="edgeLabel;html=1;align=center;verticalAlign=middle;resizable=0;points=[];" vertex="1" connectable="0" parent="UkSORgVNk2TvawBsNUPi-52">
          <mxGeometry x="-0.6065" relative="1" as="geometry">
            <mxPoint as="offset" />
          </mxGeometry>
        </mxCell>
        <mxCell id="UkSORgVNk2TvawBsNUPi-53" value="" style="endArrow=classic;html=1;rounded=0;" edge="1" parent="1" source="UkSORgVNk2TvawBsNUPi-48">
          <mxGeometry width="50" height="50" relative="1" as="geometry">
            <mxPoint x="610" y="280" as="sourcePoint" />
            <mxPoint x="400" y="380" as="targetPoint" />
            <Array as="points">
              <mxPoint x="560" y="380" />
            </Array>
          </mxGeometry>
        </mxCell>
        <mxCell id="UkSORgVNk2TvawBsNUPi-54" value="Show Win&amp;nbsp;" style="rounded=1;whiteSpace=wrap;html=1;" vertex="1" parent="1">
          <mxGeometry x="589" y="410" width="120" height="60" as="geometry" />
        </mxCell>
        <mxCell id="UkSORgVNk2TvawBsNUPi-55" value="Update Score" style="rounded=1;whiteSpace=wrap;html=1;" vertex="1" parent="1">
          <mxGeometry x="588" y="520" width="120" height="60" as="geometry" />
        </mxCell>
        <mxCell id="UkSORgVNk2TvawBsNUPi-57" value="" style="shape=flexArrow;endArrow=classic;startArrow=classic;html=1;rounded=0;" edge="1" parent="1" source="UkSORgVNk2TvawBsNUPi-55" target="UkSORgVNk2TvawBsNUPi-56">
          <mxGeometry width="100" height="100" relative="1" as="geometry">
            <mxPoint x="633.0196078431375" y="493" as="sourcePoint" />
            <mxPoint x="629" y="370" as="targetPoint" />
          </mxGeometry>
        </mxCell>
        <mxCell id="UkSORgVNk2TvawBsNUPi-60" value="Yes&amp;nbsp;" style="endArrow=classic;html=1;rounded=0;" edge="1" parent="1" source="UkSORgVNk2TvawBsNUPi-47" target="UkSORgVNk2TvawBsNUPi-54">
          <mxGeometry width="50" height="50" relative="1" as="geometry">
            <mxPoint x="438.8947368421052" y="438.894736842105" as="sourcePoint" />
            <mxPoint x="503" y="435.3333333333335" as="targetPoint" />
          </mxGeometry>
        </mxCell>
        <mxCell id="UkSORgVNk2TvawBsNUPi-62" value="" style="endArrow=classic;html=1;rounded=0;" edge="1" parent="1" source="UkSORgVNk2TvawBsNUPi-54" target="UkSORgVNk2TvawBsNUPi-55">
          <mxGeometry width="50" height="50" relative="1" as="geometry">
            <mxPoint x="391" y="541" as="sourcePoint" />
            <mxPoint x="441" y="491" as="targetPoint" />
          </mxGeometry>
        </mxCell>
        <mxCell id="UkSORgVNk2TvawBsNUPi-65" value="Draw?" style="rhombus;whiteSpace=wrap;html=1;" vertex="1" parent="1">
          <mxGeometry x="361" y="509" width="80" height="80" as="geometry" />
        </mxCell>
        <mxCell id="UkSORgVNk2TvawBsNUPi-66" value="" style="endArrow=classic;html=1;rounded=0;" edge="1" parent="1" source="UkSORgVNk2TvawBsNUPi-47" target="UkSORgVNk2TvawBsNUPi-65">
          <mxGeometry width="50" height="50" relative="1" as="geometry">
            <mxPoint x="480" y="630" as="sourcePoint" />
            <mxPoint x="530" y="580" as="targetPoint" />
          </mxGeometry>
        </mxCell>
        <mxCell id="UkSORgVNk2TvawBsNUPi-67" value="&amp;nbsp;No&amp;nbsp;" style="edgeLabel;html=1;align=center;verticalAlign=middle;resizable=0;points=[];" vertex="1" connectable="0" parent="UkSORgVNk2TvawBsNUPi-66">
          <mxGeometry x="-0.2245" y="-1" relative="1" as="geometry">
            <mxPoint as="offset" />
          </mxGeometry>
        </mxCell>
        <mxCell id="UkSORgVNk2TvawBsNUPi-68" value="" style="endArrow=classic;html=1;rounded=0;" edge="1" parent="1" source="UkSORgVNk2TvawBsNUPi-55" target="UkSORgVNk2TvawBsNUPi-9">
          <mxGeometry width="50" height="50" relative="1" as="geometry">
            <mxPoint x="450" y="630" as="sourcePoint" />
            <mxPoint x="500" y="580" as="targetPoint" />
          </mxGeometry>
        </mxCell>
        <mxCell id="UkSORgVNk2TvawBsNUPi-69" value="Show Draw" style="rounded=1;whiteSpace=wrap;html=1;" vertex="1" parent="1">
          <mxGeometry x="455" y="521" width="120" height="60" as="geometry" />
        </mxCell>
        <mxCell id="UkSORgVNk2TvawBsNUPi-70" value="" style="endArrow=classic;html=1;rounded=0;" edge="1" parent="1" source="UkSORgVNk2TvawBsNUPi-65" target="UkSORgVNk2TvawBsNUPi-69">
          <mxGeometry width="50" height="50" relative="1" as="geometry">
            <mxPoint x="450" y="660" as="sourcePoint" />
            <mxPoint x="500" y="610" as="targetPoint" />
          </mxGeometry>
        </mxCell>
        <mxCell id="UkSORgVNk2TvawBsNUPi-72" value="&amp;nbsp;Yes&amp;nbsp;" style="edgeLabel;html=1;align=center;verticalAlign=middle;resizable=0;points=[];" vertex="1" connectable="0" parent="UkSORgVNk2TvawBsNUPi-70">
          <mxGeometry x="-0.1801" y="-1" relative="1" as="geometry">
            <mxPoint as="offset" />
          </mxGeometry>
        </mxCell>
        <mxCell id="UkSORgVNk2TvawBsNUPi-71" value="" style="endArrow=classic;html=1;rounded=0;" edge="1" parent="1" source="UkSORgVNk2TvawBsNUPi-69" target="UkSORgVNk2TvawBsNUPi-9">
          <mxGeometry width="50" height="50" relative="1" as="geometry">
            <mxPoint x="450" y="630" as="sourcePoint" />
            <mxPoint x="500" y="580" as="targetPoint" />
            <Array as="points">
              <mxPoint x="515" y="780" />
            </Array>
          </mxGeometry>
        </mxCell>
        <mxCell id="UkSORgVNk2TvawBsNUPi-73" value="" style="endArrow=classic;html=1;rounded=0;entryX=0.56;entryY=0.011;entryDx=0;entryDy=0;entryPerimeter=0;" edge="1" parent="1" source="UkSORgVNk2TvawBsNUPi-65" target="UkSORgVNk2TvawBsNUPi-42">
          <mxGeometry width="50" height="50" relative="1" as="geometry">
            <mxPoint x="230" y="540" as="sourcePoint" />
            <mxPoint x="280" y="490" as="targetPoint" />
          </mxGeometry>
        </mxCell>
        <mxCell id="UkSORgVNk2TvawBsNUPi-74" value="&amp;nbsp;No&amp;nbsp;" style="edgeLabel;html=1;align=center;verticalAlign=middle;resizable=0;points=[];" vertex="1" connectable="0" parent="UkSORgVNk2TvawBsNUPi-73">
          <mxGeometry x="-0.1284" y="2" relative="1" as="geometry">
            <mxPoint as="offset" />
          </mxGeometry>
        </mxCell>
      </root>
    </mxGraphModel>
  </diagram>
</mxfile>
